<svg width="15" height="15" viewBox="0 0 15 15" fill="none" xmlns="http://www.w3.org/2000/svg">
<path d="M2.95 9.45H2.3C1.95522 9.45 1.62456 9.31304 1.38076 9.06924C1.13696 8.82544 1 8.49478 1 8.15V2.3C1 1.95522 1.13696 1.62456 1.38076 1.38076C1.62456 1.13696 1.95522 1 2.3 1H8.15C8.49478 1 8.82544 1.13696 9.06924 1.38076C9.31304 1.62456 9.45 1.95522 9.45 2.3V2.95M6.85 5.55H12.7C13.418 5.55 14 6.13203 14 6.85V12.7C14 13.418 13.418 14 12.7 14H6.85C6.13203 14 5.55 13.418 5.55 12.7V6.85C5.55 6.13203 6.13203 5.55 6.85 5.55Z" stroke="#DFDFDF" stroke-width="0.928571" stroke-linecap="round" stroke-linejoin="round"/>
</svg>
